<svg xmlns="http://www.w3.org/2000/svg" width="168" height="81" viewBox="0 0 168 81" fill="none"><path d="M21.0275 20.9602C17.3632 21.689 14.0684 23.6743 11.7118 26.5734C9.35527 29.4725 8.08494 33.1034 8.12015 36.8393C8.11406 39.129 8.60046 41.3933 9.54638 43.4784H5.95292C5.82473 43.4785 5.69941 43.5165 5.59283 43.5877C5.48624 43.659 5.40317 43.7602 5.35412 43.8787C5.30506 43.9971 5.29222 44.1274 5.31723 44.2532C5.34223 44.3789 5.40395 44.4944 5.49459 44.5851L7.32794 46.4191L6.41126 47.3358C6.29317 47.458 6.22783 47.6218 6.22931 47.7918C6.23078 47.9617 6.29896 48.1243 6.41916 48.2445C6.53936 48.3647 6.70196 48.4329 6.87193 48.4344C7.04191 48.4359 7.20567 48.3705 7.32794 48.2524L8.24462 47.3358L9.0822 48.1727L7.50622 50.0644L2.19416 50.8196C2.06484 50.8382 1.94416 50.8955 1.84794 50.9839C1.75171 51.0723 1.68444 51.1876 1.65493 51.3149C1.62543 51.4422 1.63506 51.5754 1.68258 51.6971C1.7301 51.8188 1.81329 51.9233 1.92123 51.9969L4.83139 53.9774C4.82546 54.2713 4.87916 54.5634 4.98925 54.8359C5.09934 55.1084 5.26352 55.3558 5.4719 55.5632V55.5664L5.49329 55.5891C5.69892 55.7983 5.94377 55.965 6.21386 56.0796C6.48394 56.1942 6.77396 56.2544 7.06733 56.2568C7.07965 56.2568 7.09196 56.2568 7.10428 56.2568L9.08155 59.1637C9.14092 59.2511 9.22074 59.3227 9.31407 59.3721C9.4074 59.4216 9.5114 59.4476 9.61704 59.4477C9.66656 59.4475 9.71592 59.4418 9.7642 59.4308C9.89147 59.4012 10.0068 59.3337 10.0951 59.2374C10.1833 59.141 10.2404 59.0202 10.2588 58.8908L11.0167 53.5781L12.9058 52.0028L13.7434 52.8397L12.8293 53.7531C12.7191 53.8768 12.6604 54.038 12.6652 54.2036C12.6701 54.3692 12.7382 54.5266 12.8555 54.6436C12.9728 54.7605 13.1304 54.8282 13.296 54.8326C13.4616 54.837 13.6226 54.7778 13.746 54.6672L14.6627 53.7505L16.496 55.5846C16.5867 55.6752 16.7022 55.7369 16.8279 55.7619C16.9536 55.7869 17.084 55.7741 17.2024 55.725C17.3209 55.676 17.4221 55.5929 17.4933 55.4863C17.5646 55.3797 17.6026 55.2544 17.6026 55.1262V51.582C21.3882 53.3118 25.6945 53.5172 29.6275 52.1556C33.5605 50.794 36.818 47.9701 38.7238 44.27C39.9223 41.9771 40.5438 39.4266 40.5345 36.8393C40.5312 34.4317 39.9924 32.0548 38.9572 29.8811C37.922 27.7073 36.4162 25.791 34.5489 24.271C32.6817 22.751 30.4997 21.6654 28.1611 21.0928C25.8225 20.5201 23.3858 20.4749 21.0275 20.9602ZM24.3273 21.9288C25.7931 21.9288 27.3548 24.1277 28.3778 27.7633H20.2742C21.2998 24.1277 22.8615 21.9288 24.3273 21.9288ZM19.1533 36.1911C19.1757 33.7931 19.4424 31.4037 19.9494 29.0599H28.7052C29.2122 31.4037 29.4789 33.7931 29.5013 36.1911H19.1533ZM29.5013 37.4876C29.4778 39.4436 29.2988 41.3946 28.9658 43.3222H19.6888C19.3559 41.3946 19.1768 39.4436 19.1533 37.4876H29.5013ZM21.4975 22.2017C20.2565 23.8528 19.3799 25.7484 18.9258 27.7633H12.5077C14.7256 24.8749 17.9228 22.8969 21.4975 22.2017ZM11.6131 29.0599H18.6146C18.1298 31.4066 17.8741 33.7949 17.8509 36.1911H9.43293C9.53968 33.667 10.2902 31.2122 11.6131 29.0599ZM7.51789 44.775H11.9152L9.9159 47.1737L7.51789 44.775ZM5.28908 52.7224L4.03594 51.8666L6.26929 51.5483L5.28908 52.7224ZM9.21445 57.0484L8.36066 55.7933L9.53341 54.8157L9.21445 57.0484ZM16.3061 53.5651L13.9074 51.1665L16.3061 49.1665V53.5651ZM16.5394 47.2845L7.52826 54.7969C7.35932 54.9167 7.1522 54.97 6.94642 54.9468C6.74063 54.9236 6.55059 54.8255 6.41256 54.6711L5.95422 55.1295L6.40802 54.6679C6.25364 54.5298 6.15549 54.3398 6.13229 54.134C6.1091 53.9282 6.16248 53.7211 6.28225 53.5522L13.7972 44.541C13.9428 44.3683 14.1232 44.2282 14.3266 44.1299C14.53 44.0316 14.7519 43.9773 14.9777 43.9705C15.0054 43.9705 15.0333 43.9705 15.0613 43.9705C15.6152 43.9836 16.1413 44.2152 16.525 44.6148C16.9086 45.0144 17.1187 45.5495 17.1093 46.1034C17.1026 46.329 17.0484 46.5508 16.9502 46.7541C16.852 46.9574 16.712 47.1377 16.5394 47.2832V47.2845ZM17.6026 50.137V48.0391C18.0902 47.5312 18.3754 46.8626 18.4046 46.1591C18.4177 45.6979 18.3366 45.2388 18.1661 44.81C17.9956 44.3812 17.7394 43.9917 17.4131 43.6654C17.0868 43.3391 16.6973 43.0829 16.2685 42.9124C15.8397 42.7419 15.3806 42.6608 14.9194 42.6739C14.216 42.7031 13.5475 42.9881 13.0393 43.4752H10.9862C10.0489 41.6126 9.5204 39.5711 9.43617 37.4876H17.8509C17.9449 43.7378 19.39 48.9785 21.4962 51.4757C20.1424 51.2128 18.8319 50.7622 17.6026 50.137ZM24.3273 51.7499C22.6943 51.7499 20.9413 49.0271 19.9494 44.6188H28.7052C27.7133 49.0271 25.9603 51.7499 24.3273 51.7499ZM27.1584 51.4751C28.3901 50.0132 29.3982 47.6119 30.04 44.6188H37.0415C35.9646 46.3887 34.5288 47.9133 32.8265 49.0943C31.1242 50.2752 29.1934 51.0862 27.1584 51.4751ZM37.7423 43.3222H30.287C30.6081 41.3934 30.7815 39.4429 30.8056 37.4876H39.2191C39.1378 39.514 38.6348 41.5012 37.7423 43.3222ZM39.2217 36.1911H30.8037C30.7805 33.7949 30.5248 31.4066 30.04 29.0599H37.0415C38.3644 31.2122 39.1149 33.667 39.2217 36.1911ZM29.7288 27.7633C29.2747 25.7484 28.3981 23.8528 27.1571 22.2017C30.7313 22.8972 33.9281 24.8752 36.1456 27.7633H29.7288Z" fill="white"></path><path d="M59.0863 14.9117V32.0815H55.2556V7.79756H58.4023L72.1518 25.3436V7.83176H76.0167V32.0815H72.6649L59.0863 14.9117ZM88.8022 32.4236C87.4112 32.4236 86.1457 32.1842 85.0056 31.7053C83.8884 31.2037 82.9193 30.531 82.0984 29.6873C81.2775 28.8209 80.6391 27.8404 80.1831 26.7459C79.7498 25.6286 79.5332 24.4429 79.5332 23.1888C79.5332 21.5015 79.9208 19.9624 80.6961 18.5714C81.4714 17.1577 82.5544 16.029 83.9454 15.1854C85.3363 14.3189 86.9666 13.8857 88.8364 13.8857C90.7061 13.8857 92.3136 14.3189 93.659 15.1854C95.0271 16.029 96.0874 17.1463 96.8398 18.5372C97.5923 19.9282 97.9685 21.4217 97.9685 23.0178C97.9685 23.2914 97.9571 23.5536 97.9343 23.8045C97.9115 24.0325 97.8887 24.2263 97.8659 24.3859H83.5349C83.6033 25.4348 83.8884 26.3583 84.39 27.1563C84.9144 27.9316 85.5757 28.5473 86.3738 29.0033C87.1718 29.4365 88.0269 29.6531 88.939 29.6531C89.9422 29.6531 90.8885 29.4023 91.7778 28.9007C92.6899 28.399 93.3055 27.7378 93.6248 26.9169L96.8398 27.8404C96.4522 28.7069 95.8593 29.4935 95.0613 30.2004C94.286 30.8844 93.3625 31.4317 92.2908 31.8421C91.2192 32.2298 90.0563 32.4236 88.8022 32.4236ZM83.4323 21.8891H94.2404C94.172 20.863 93.8756 19.9624 93.3511 19.1871C92.8495 18.389 92.1996 17.7734 91.4016 17.3401C90.6263 16.8841 89.7598 16.6561 88.8022 16.6561C87.8673 16.6561 87.0008 16.8841 86.2027 17.3401C85.4275 17.7734 84.789 18.389 84.2874 19.1871C83.7857 19.9624 83.5007 20.863 83.4323 21.8891ZM102.49 14.1935L106.731 20.3158L107.039 20.8972L107.347 20.3158L111.554 14.1935H115.624L109.194 23.1546L115.692 32.0815H111.622L107.347 25.9934L107.039 25.4462L106.731 25.9934L102.456 32.0815H98.3856L104.884 23.1888L98.454 14.1935H102.49ZM118.068 25.1384V14.1935H121.83V24.3859C121.83 25.982 122.115 27.1905 122.685 28.0114C123.278 28.8095 124.133 29.2085 125.251 29.2085C125.957 29.2085 126.641 29.0603 127.303 28.7639C127.987 28.4674 128.602 28.0342 129.15 27.4642C129.72 26.8713 130.176 26.1645 130.518 25.3436V14.1935H134.28V27.8404C134.28 28.2736 134.36 28.5815 134.52 28.7639C134.679 28.9463 134.941 29.0489 135.306 29.0717V32.0815C134.919 32.1499 134.599 32.1956 134.349 32.2184C134.098 32.2412 133.858 32.2526 133.63 32.2526C132.946 32.2526 132.376 32.0701 131.92 31.7053C131.464 31.3177 131.202 30.8274 131.133 30.2346L131.065 28.456C130.267 29.7558 129.229 30.7476 127.953 31.4317C126.676 32.0929 125.273 32.4236 123.746 32.4236C121.876 32.4236 120.462 31.8079 119.505 30.5766C118.547 29.3453 118.068 27.5326 118.068 25.1384ZM145.443 32.4236C143.938 32.4236 142.513 32.1842 141.168 31.7053C139.822 31.2037 138.671 30.4626 137.713 29.4821L139.116 26.9511C140.142 27.8632 141.168 28.5245 142.194 28.9349C143.243 29.3453 144.28 29.5505 145.306 29.5505C146.355 29.5505 147.21 29.3567 147.871 28.9691C148.533 28.5587 148.863 27.9658 148.863 27.1905C148.863 26.6205 148.692 26.1987 148.35 25.925C148.008 25.6514 147.507 25.412 146.845 25.2068C146.207 25.0016 145.432 24.7735 144.52 24.5227C143.243 24.1351 142.171 23.7361 141.305 23.3256C140.438 22.8924 139.788 22.368 139.355 21.7523C138.922 21.1366 138.705 20.35 138.705 19.3923C138.705 18.2294 139.002 17.2375 139.594 16.4167C140.187 15.5958 141.008 14.9687 142.057 14.5355C143.129 14.1023 144.36 13.8857 145.751 13.8857C147.051 13.8857 148.248 14.0909 149.342 14.5013C150.459 14.8889 151.44 15.5046 152.284 16.3483L150.676 18.8451C149.878 18.1154 149.057 17.5796 148.213 17.2375C147.393 16.8955 146.503 16.7245 145.546 16.7245C144.998 16.7245 144.474 16.7929 143.972 16.9297C143.471 17.0437 143.049 17.2717 142.707 17.6138C142.388 17.933 142.228 18.389 142.228 18.9819C142.228 19.4607 142.365 19.8483 142.638 20.1448C142.912 20.4412 143.322 20.692 143.87 20.8972C144.417 21.1024 145.09 21.3305 145.888 21.5813C147.279 21.9917 148.464 22.4022 149.445 22.8126C150.425 23.2002 151.178 23.7133 151.702 24.3517C152.249 24.9674 152.523 25.8224 152.523 26.9169C152.523 28.6499 151.873 30.0066 150.573 30.9871C149.297 31.9447 147.586 32.4236 145.443 32.4236ZM73.0753 51.1836H65.0034V72.0815H61.1385V51.1836H53.0325V47.7976H73.0753V51.1836ZM83.6373 57.4427C82.1779 57.4656 80.8782 57.7962 79.7381 58.4346C78.6209 59.0731 77.8228 59.9738 77.344 61.1366V72.0815H73.5816V54.1935H77.0703V58.1952C77.686 56.9639 78.4954 55.9834 79.4987 55.2538C80.502 54.5013 81.5623 54.0909 82.6796 54.0225C82.9076 54.0225 83.09 54.0225 83.2268 54.0225C83.3864 54.0225 83.5233 54.0339 83.6373 54.0567V57.4427ZM85.0412 66.8485C85.0412 65.7084 85.3604 64.7165 85.9989 63.8729C86.6601 63.0064 87.5608 62.3451 88.7009 61.8891C89.841 61.4103 91.1635 61.1709 92.6684 61.1709C93.4665 61.1709 94.2759 61.2279 95.0968 61.3419C95.9405 61.4559 96.6815 61.6383 97.32 61.8891V60.7604C97.32 59.5063 96.9438 58.5258 96.1913 57.819C95.4388 57.1121 94.3557 56.7587 92.942 56.7587C91.9387 56.7587 90.9925 56.9411 90.1032 57.3059C89.2139 57.648 88.2676 58.1382 87.2644 58.7767L85.9989 56.2457C87.1846 55.4476 88.3703 54.8547 89.556 54.4671C90.7645 54.0795 92.03 53.8857 93.3525 53.8857C95.7467 53.8857 97.6278 54.5241 98.9959 55.801C100.387 57.0551 101.082 58.8451 101.082 61.1709V67.8404C101.082 68.2736 101.151 68.5815 101.288 68.7639C101.447 68.9463 101.709 69.0489 102.074 69.0717V72.0815C101.732 72.1499 101.424 72.1956 101.151 72.2184C100.877 72.2412 100.649 72.2526 100.467 72.2526C99.6686 72.2526 99.0643 72.0587 98.6539 71.6711C98.2435 71.2835 98.004 70.8274 97.9356 70.303L97.833 69.2769C97.0578 70.2802 96.0659 71.0555 94.8574 71.6027C93.6489 72.1499 92.429 72.4236 91.1977 72.4236C90.012 72.4236 88.9517 72.1842 88.0168 71.7053C87.082 71.2037 86.3523 70.531 85.8278 69.6873C85.3034 68.8437 85.0412 67.8974 85.0412 66.8485ZM96.4307 67.943C96.7043 67.6466 96.921 67.3502 97.0806 67.0537C97.2402 66.7573 97.32 66.4951 97.32 66.2671V64.2149C96.6815 63.9641 96.0089 63.7817 95.302 63.6677C94.5952 63.5308 93.8997 63.4624 93.2157 63.4624C91.8475 63.4624 90.7303 63.7361 89.8638 64.2833C89.0201 64.8306 88.5983 65.583 88.5983 66.5407C88.5983 67.0651 88.7351 67.5668 89.0087 68.0456C89.3051 68.5245 89.7156 68.9121 90.24 69.2085C90.7873 69.5049 91.4599 69.6531 92.258 69.6531C93.0788 69.6531 93.8655 69.4935 94.618 69.1743C95.3704 68.8551 95.9747 68.4446 96.4307 67.943ZM110.039 72.0815L103.233 54.1935H107.132L112.228 68.5929L117.324 54.1935H120.95L114.143 72.0815H110.039ZM131.155 72.4236C129.764 72.4236 128.498 72.1842 127.358 71.7053C126.241 71.2037 125.272 70.531 124.451 69.6873C123.63 68.8209 122.992 67.8404 122.536 66.7459C122.102 65.6286 121.886 64.4429 121.886 63.1888C121.886 61.5015 122.274 59.9624 123.049 58.5714C123.824 57.1577 124.907 56.029 126.298 55.1854C127.689 54.3189 129.319 53.8857 131.189 53.8857C133.059 53.8857 134.666 54.3189 136.012 55.1854C137.38 56.029 138.44 57.1463 139.192 58.5372C139.945 59.9282 140.321 61.4217 140.321 63.0178C140.321 63.2914 140.31 63.5536 140.287 63.8045C140.264 64.0325 140.241 64.2263 140.219 64.3859H125.888C125.956 65.4348 126.241 66.3583 126.743 67.1563C127.267 67.9316 127.928 68.5473 128.726 69.0033C129.524 69.4365 130.38 69.6531 131.292 69.6531C132.295 69.6531 133.241 69.4023 134.13 68.9007C135.043 68.399 135.658 67.7378 135.977 66.9169L139.192 67.8404C138.805 68.7069 138.212 69.4935 137.414 70.2004C136.639 70.8844 135.715 71.4317 134.644 71.8421C133.572 72.2298 132.409 72.4236 131.155 72.4236ZM125.785 61.8891H136.593C136.525 60.863 136.228 59.9624 135.704 59.1871C135.202 58.389 134.552 57.7734 133.754 57.3401C132.979 56.8841 132.113 56.6561 131.155 56.6561C130.22 56.6561 129.353 56.8841 128.555 57.3401C127.78 57.7734 127.142 58.389 126.64 59.1871C126.138 59.9624 125.853 60.863 125.785 61.8891ZM143.424 47.1135H147.187V66.9169C147.187 67.829 147.323 68.4104 147.597 68.6613C147.871 68.9121 148.213 69.0375 148.623 69.0375C149.079 69.0375 149.501 68.9919 149.889 68.9007C150.299 68.8095 150.652 68.6955 150.949 68.5587L151.496 71.5343C150.949 71.7623 150.299 71.9561 149.547 72.1157C148.794 72.2754 148.121 72.3552 147.529 72.3552C146.252 72.3552 145.248 72.0017 144.519 71.2949C143.789 70.5652 143.424 69.5619 143.424 68.285V47.1135ZM160.039 72.4236C158.534 72.4236 157.109 72.1842 155.764 71.7053C154.419 71.2037 153.267 70.4626 152.31 69.4821L153.712 66.9511C154.738 67.8632 155.764 68.5245 156.79 68.9349C157.839 69.3453 158.876 69.5505 159.903 69.5505C160.951 69.5505 161.806 69.3567 162.468 68.9691C163.129 68.5587 163.46 67.9658 163.46 67.1905C163.46 66.6205 163.289 66.1987 162.947 65.925C162.605 65.6514 162.103 65.412 161.442 65.2068C160.803 65.0016 160.028 64.7735 159.116 64.5227C157.839 64.1351 156.767 63.7361 155.901 63.3256C155.034 62.8924 154.384 62.368 153.951 61.7523C153.518 61.1366 153.301 60.35 153.301 59.3923C153.301 58.2294 153.598 57.2375 154.191 56.4167C154.784 55.5958 155.604 54.9687 156.653 54.5355C157.725 54.1023 158.956 53.8857 160.347 53.8857C161.647 53.8857 162.844 54.0909 163.938 54.5013C165.056 54.8889 166.036 55.5046 166.88 56.3483L165.272 58.8451C164.474 58.1154 163.653 57.5796 162.81 57.2375C161.989 56.8955 161.1 56.7245 160.142 56.7245C159.595 56.7245 159.07 56.7929 158.569 56.9297C158.067 57.0437 157.645 57.2717 157.303 57.6138C156.984 57.933 156.824 58.389 156.824 58.9819C156.824 59.4607 156.961 59.8483 157.235 60.1448C157.508 60.4412 157.919 60.692 158.466 60.8972C159.013 61.1024 159.686 61.3305 160.484 61.5813C161.875 61.9917 163.061 62.4022 164.041 62.8126C165.022 63.2002 165.774 63.7133 166.298 64.3517C166.846 64.9674 167.119 65.8224 167.119 66.9169C167.119 68.6499 166.469 70.0066 165.17 70.9871C163.893 71.9447 162.183 72.4236 160.039 72.4236Z" fill="white"></path></svg>