<svg xmlns="http://www.w3.org/2000/svg" width="177" height="22" viewBox="0 0 177 22" fill="none"><path d="M11.2614 0.187782C9.19668 0.5984 7.34016 1.71704 6.01234 3.35058C4.68452 4.98412 3.96873 7.03001 3.98857 9.13505C3.98514 10.4252 4.25921 11.701 4.7922 12.8759H2.76743C2.69519 12.8759 2.62459 12.8974 2.56453 12.9375C2.50447 12.9776 2.45767 13.0347 2.43002 13.1014C2.40238 13.1682 2.39515 13.2416 2.40924 13.3124C2.42333 13.3833 2.4581 13.4484 2.50917 13.4995L3.5422 14.5328L3.02568 15.0494C2.95915 15.1183 2.92233 15.2105 2.92316 15.3063C2.92399 15.4021 2.96241 15.4937 3.03013 15.5614C3.09786 15.6291 3.18948 15.6676 3.28526 15.6684C3.38103 15.6692 3.4733 15.6324 3.5422 15.5659L4.05871 15.0494L4.53065 15.5209L3.64265 16.5868L0.649513 17.0124C0.576646 17.0229 0.508647 17.0551 0.45443 17.1049C0.400212 17.1547 0.362306 17.2197 0.34568 17.2915C0.329054 17.3632 0.334485 17.4382 0.361261 17.5068C0.388037 17.5754 0.434907 17.6343 0.495729 17.6757L2.13549 18.7917C2.13215 18.9573 2.16241 19.1218 2.22444 19.2754C2.28647 19.429 2.37898 19.5684 2.49639 19.6852V19.687L2.50844 19.6998C2.62431 19.8177 2.76227 19.9116 2.91445 19.9762C3.06664 20.0407 3.23005 20.0747 3.39535 20.076C3.40229 20.076 3.40923 20.076 3.41617 20.076L4.53029 21.714C4.56374 21.7632 4.60872 21.8035 4.6613 21.8314C4.71389 21.8593 4.77249 21.8739 4.83201 21.874C4.85992 21.8738 4.88773 21.8707 4.91493 21.8645C4.98665 21.8477 5.05163 21.8097 5.10137 21.7554C5.15111 21.7011 5.18327 21.6331 5.19364 21.5602L5.62066 18.5667L6.6851 17.679L7.15705 18.1506L6.64199 18.6653C6.57988 18.735 6.5468 18.8258 6.54955 18.9191C6.55229 19.0124 6.59065 19.1011 6.65674 19.167C6.72284 19.2329 6.81166 19.271 6.90497 19.2735C6.99828 19.276 7.089 19.2427 7.15851 19.1804L7.67502 18.6638L8.70804 19.6972C8.75913 19.7483 8.82421 19.7831 8.89505 19.7972C8.9659 19.8113 9.03934 19.804 9.10607 19.7764C9.17281 19.7487 9.22985 19.7019 9.26999 19.6419C9.31013 19.5818 9.33156 19.5112 9.33158 19.439V17.442C11.4646 18.4166 13.891 18.5324 16.1071 17.7652C18.3232 16.998 20.1587 15.4068 21.2325 13.3219C21.9078 12.03 22.258 10.5928 22.2528 9.13505C22.2509 7.77841 21.9474 6.43916 21.364 5.21432C20.7807 3.98949 19.9323 2.90973 18.8802 2.05328C17.828 1.19683 16.5986 0.585118 15.2809 0.262468C13.9632 -0.0601811 12.5902 -0.0856924 11.2614 0.187782ZM13.1207 0.733517C13.9466 0.733517 14.8265 1.97256 15.403 4.02107H10.8369C11.4148 1.97256 12.2948 0.733517 13.1207 0.733517ZM10.2053 8.76976C10.2179 7.41862 10.3682 6.07229 10.6539 4.75164H15.5874C15.8731 6.07229 16.0234 7.41862 16.036 8.76976H10.2053ZM16.036 9.50033C16.0228 10.6024 15.9219 11.7018 15.7343 12.7879H10.5071C10.3195 11.7018 10.2186 10.6024 10.2053 9.50033H16.036ZM11.5262 0.887301C10.8269 1.81761 10.333 2.88573 10.0771 4.02107H6.46081C7.71048 2.39356 9.512 1.27902 11.5262 0.887301ZM5.95672 4.75164H9.90179C9.62864 6.07393 9.48453 7.41962 9.47148 8.76976H4.72827C4.78842 7.34755 5.21131 5.96435 5.95672 4.75164ZM3.64922 13.6065H6.12695L5.00041 14.958L3.64922 13.6065ZM2.39338 18.0845L1.68728 17.6023L2.94569 17.423L2.39338 18.0845ZM4.60517 20.522L4.12409 19.8148L4.78489 19.264L4.60517 20.522ZM8.60101 18.5594L7.24946 17.2078L8.60101 16.0809V18.5594ZM8.73251 15.0205L3.65507 19.2534C3.55988 19.3209 3.44317 19.351 3.32722 19.3379C3.21127 19.3248 3.10419 19.2695 3.02642 19.1825L2.76816 19.4408L3.02386 19.1807C2.93687 19.1029 2.88157 18.9959 2.8685 18.8799C2.85543 18.764 2.8855 18.6473 2.95299 18.5521L7.18736 13.4746C7.26942 13.3773 7.37107 13.2984 7.48568 13.243C7.6003 13.1876 7.7253 13.157 7.85255 13.1532C7.86813 13.1532 7.88384 13.1532 7.89967 13.1532C8.21171 13.1606 8.50817 13.2911 8.72436 13.5162C8.94054 13.7413 9.05889 14.0429 9.0536 14.355C9.04982 14.4821 9.01928 14.607 8.96395 14.7216C8.90862 14.8362 8.82976 14.9378 8.73251 15.0198V15.0205ZM9.33158 16.6277V15.4457C9.60629 15.1595 9.76698 14.7827 9.78344 14.3864C9.79085 14.1265 9.74513 13.8678 9.64906 13.6262C9.553 13.3846 9.40862 13.1651 9.22477 12.9813C9.04092 12.7974 8.82146 12.653 8.57986 12.557C8.33825 12.4609 8.07957 12.4152 7.81967 12.4226C7.42336 12.4391 7.04668 12.5996 6.76035 12.8741H5.60349C5.07534 11.8246 4.77756 10.6743 4.7301 9.50033H9.47148C9.52445 13.022 10.3387 15.975 11.5255 17.3821C10.7626 17.2339 10.0242 16.9801 9.33158 16.6277ZM13.1207 17.5366C12.2005 17.5366 11.2128 16.0024 10.6539 13.5185H15.5874C15.0285 16.0024 14.0408 17.5366 13.1207 17.5366ZM14.7159 17.3817C15.4099 16.558 15.9779 15.205 16.3396 13.5185H20.2846C19.6779 14.5157 18.8688 15.3748 17.9096 16.0402C16.9505 16.7056 15.8625 17.1626 14.7159 17.3817ZM20.6795 12.7879H16.4787C16.6597 11.7011 16.7574 10.602 16.771 9.50033H21.5116C21.4658 10.6421 21.1824 11.7618 20.6795 12.7879ZM21.5131 8.76976H16.7699C16.7568 7.41962 16.6127 6.07393 16.3396 4.75164H20.2846C21.03 5.96435 21.4529 7.34755 21.5131 8.76976ZM16.1642 4.02107C15.9083 2.88573 15.4144 1.81761 14.7151 0.887301C16.7291 1.27918 18.5303 2.39371 19.7798 4.02107H16.1642Z" fill="#FFBA88"></path><path d="M173.971 16.269C173.971 15.995 173.903 15.7477 173.766 15.527C173.629 15.2987 173.366 15.0933 172.978 14.9106C172.597 14.728 172.034 14.5605 171.289 14.4083C170.634 14.2638 170.033 14.0925 169.485 13.8947C168.945 13.6892 168.48 13.4419 168.092 13.1527C167.704 12.8635 167.404 12.521 167.191 12.1253C166.977 11.7296 166.871 11.273 166.871 10.7555C166.871 10.2532 166.981 9.77761 167.202 9.32862C167.423 8.87962 167.738 8.4839 168.149 8.14145C168.56 7.79899 169.059 7.52883 169.645 7.33097C170.238 7.13311 170.9 7.03418 171.631 7.03418C172.666 7.03418 173.553 7.20921 174.291 7.55928C175.037 7.90173 175.607 8.36975 176.003 8.96334C176.399 9.54931 176.597 10.2114 176.597 10.9496H173.846C173.846 10.6223 173.762 10.3179 173.594 10.0364C173.435 9.74717 173.191 9.51507 172.864 9.34003C172.537 9.15739 172.126 9.06607 171.631 9.06607C171.159 9.06607 170.767 9.14217 170.455 9.29437C170.151 9.43897 169.923 9.62922 169.77 9.86513C169.626 10.101 169.553 10.3598 169.553 10.6414C169.553 10.8468 169.592 11.0333 169.668 11.2007C169.751 11.3605 169.888 11.5089 170.079 11.6459C170.269 11.7753 170.528 11.897 170.855 12.0112C171.19 12.1253 171.608 12.2357 172.11 12.3422C173.054 12.5401 173.865 12.795 174.542 13.107C175.227 13.4114 175.752 13.8072 176.117 14.2942C176.482 14.7736 176.665 15.3824 176.665 16.1206C176.665 16.6685 176.547 17.1708 176.311 17.6274C176.083 18.0764 175.748 18.4683 175.307 18.8032C174.865 19.1304 174.336 19.3853 173.72 19.568C173.111 19.7506 172.426 19.8419 171.665 19.8419C170.547 19.8419 169.599 19.6441 168.823 19.2484C168.047 18.845 167.457 18.3313 167.054 17.7073C166.658 17.0757 166.46 16.4212 166.46 15.7439H169.12C169.15 16.2538 169.291 16.6609 169.542 16.9653C169.801 17.2621 170.12 17.479 170.501 17.616C170.889 17.7454 171.289 17.8101 171.7 17.8101C172.194 17.8101 172.609 17.7454 172.944 17.616C173.279 17.479 173.534 17.2964 173.709 17.0681C173.884 16.8322 173.971 16.5658 173.971 16.269Z" fill="#FFBA88"></path><path d="M164.029 2.08057V19.6142H161.266V2.08057H164.029Z" fill="#FFBA88"></path><path d="M153.995 19.8419C153.081 19.8419 152.256 19.6935 151.518 19.3968C150.787 19.0924 150.163 18.67 149.646 18.1297C149.136 17.5894 148.744 16.9539 148.47 16.2234C148.196 15.4928 148.059 14.7051 148.059 13.8604V13.4038C148.059 12.4373 148.2 11.5622 148.481 10.7783C148.763 9.9945 149.155 9.32481 149.657 8.76928C150.159 8.20613 150.753 7.77616 151.438 7.47937C152.123 7.18258 152.865 7.03418 153.664 7.03418C154.546 7.03418 155.319 7.18258 155.981 7.47937C156.643 7.77616 157.191 8.19472 157.625 8.73503C158.066 9.26774 158.393 9.90318 158.606 10.6414C158.827 11.3795 158.937 12.1938 158.937 13.0842V14.26H149.394V12.2851H156.221V12.0682C156.205 11.5736 156.106 11.1094 155.924 10.6756C155.749 10.2418 155.479 9.89177 155.113 9.62541C154.748 9.35906 154.261 9.22588 153.652 9.22588C153.196 9.22588 152.789 9.32481 152.431 9.52268C152.081 9.71293 151.788 9.9907 151.552 10.356C151.316 10.7213 151.133 11.1626 151.004 11.6801C150.882 12.19 150.821 12.7646 150.821 13.4038V13.8604C150.821 14.4007 150.894 14.903 151.038 15.3672C151.19 15.8238 151.411 16.2234 151.7 16.5658C151.989 16.9083 152.34 17.1784 152.75 17.3763C153.161 17.5665 153.629 17.6617 154.155 17.6617C154.817 17.6617 155.406 17.5285 155.924 17.2621C156.441 16.9958 156.89 16.6191 157.271 16.132L158.721 17.5361C158.454 17.9242 158.108 18.2971 157.682 18.6548C157.256 19.0048 156.734 19.2902 156.118 19.5109C155.509 19.7316 154.801 19.8419 153.995 19.8419Z" fill="#FFBA88"></path><path d="M141.13 17.4341L144.155 7.26318H147.009L142.717 19.6143H140.936L141.13 17.4341ZM138.813 7.26318L141.895 17.4797L142.043 19.6143H140.262L135.948 7.26318H138.813Z" fill="#FFBA88"></path><path d="M131.655 17.1366V11.2464C131.655 10.805 131.575 10.4245 131.416 10.1048C131.256 9.78522 131.012 9.5379 130.685 9.36286C130.365 9.18783 129.962 9.10032 129.475 9.10032C129.026 9.10032 128.638 9.17642 128.311 9.32862C127.983 9.48082 127.728 9.68629 127.546 9.94504C127.363 10.2038 127.272 10.4968 127.272 10.824H124.532C124.532 10.337 124.65 9.86513 124.886 9.40852C125.122 8.95192 125.464 8.54478 125.913 8.18711C126.362 7.82943 126.899 7.54786 127.523 7.34239C128.147 7.13692 128.847 7.03418 129.623 7.03418C130.552 7.03418 131.374 7.19019 132.089 7.5022C132.812 7.81421 133.379 8.28604 133.79 8.91767C134.208 9.5417 134.418 10.3255 134.418 11.2692V16.7599C134.418 17.323 134.456 17.8291 134.532 18.2781C134.616 18.7195 134.734 19.1038 134.886 19.431V19.6136H132.066C131.937 19.3169 131.834 18.9402 131.758 18.4835C131.69 18.0193 131.655 17.5703 131.655 17.1366ZM132.055 12.1025L132.078 13.8033H130.103C129.593 13.8033 129.144 13.8528 128.756 13.9517C128.368 14.0431 128.044 14.18 127.786 14.3627C127.527 14.5453 127.333 14.766 127.203 15.0248C127.074 15.2835 127.009 15.5765 127.009 15.9037C127.009 16.231 127.085 16.5316 127.238 16.8055C127.39 17.0719 127.611 17.2812 127.9 17.4334C128.197 17.5856 128.554 17.6617 128.973 17.6617C129.536 17.6617 130.027 17.5475 130.445 17.3192C130.871 17.0833 131.206 16.7979 131.45 16.4631C131.693 16.1206 131.823 15.7972 131.838 15.4928L132.728 16.7142C132.637 17.0262 132.481 17.3611 132.26 17.7187C132.04 18.0764 131.75 18.4189 131.393 18.7461C131.043 19.0657 130.62 19.3283 130.126 19.5337C129.639 19.7392 129.075 19.8419 128.436 19.8419C127.63 19.8419 126.91 19.6821 126.279 19.3625C125.647 19.0353 125.152 18.5977 124.795 18.0498C124.437 17.4942 124.258 16.8664 124.258 16.1663C124.258 15.5118 124.38 14.9334 124.624 14.4312C124.875 13.9213 125.24 13.4951 125.719 13.1527C126.206 12.8102 126.8 12.5515 127.5 12.3765C128.2 12.1938 128.999 12.1025 129.897 12.1025H132.055Z" fill="#FFBA88"></path><path d="M119.601 9.614V19.6136H116.85V7.26248H119.475L119.601 9.614ZM123.379 7.18258L123.356 9.73956C123.189 9.70912 123.006 9.68629 122.809 9.67107C122.618 9.65585 122.428 9.64824 122.238 9.64824C121.766 9.64824 121.351 9.71673 120.994 9.85371C120.636 9.98309 120.335 10.1733 120.092 10.4245C119.856 10.668 119.673 10.9648 119.544 11.3149C119.414 11.6649 119.338 12.0568 119.316 12.4906L118.688 12.5363C118.688 11.76 118.764 11.0409 118.916 10.3788C119.068 9.71673 119.296 9.13456 119.601 8.6323C119.913 8.13003 120.301 7.73811 120.765 7.45654C121.237 7.17497 121.781 7.03418 122.398 7.03418C122.565 7.03418 122.744 7.0494 122.934 7.07984C123.132 7.11028 123.28 7.14453 123.379 7.18258Z" fill="#FFBA88"></path><path d="M110.526 2.99365V19.6141H107.684V2.99365H110.526ZM115.743 2.99365V5.27668H102.512V2.99365H115.743Z" fill="#FFBA88"></path><path d="M93.038 16.269C93.038 15.995 92.9695 15.7477 92.8325 15.527C92.6956 15.2987 92.433 15.0933 92.0449 14.9106C91.6644 14.728 91.1012 14.5605 90.3555 14.4083C89.701 14.2638 89.0998 14.0925 88.5519 13.8947C88.0115 13.6892 87.5473 13.4419 87.1592 13.1527C86.7711 12.8635 86.4705 12.521 86.2574 12.1253C86.0443 11.7296 85.9378 11.273 85.9378 10.7555C85.9378 10.2532 86.0481 9.77761 86.2688 9.32862C86.4895 8.87962 86.8053 8.4839 87.2163 8.14145C87.6272 7.79899 88.1257 7.52883 88.7117 7.33097C89.3053 7.13311 89.9673 7.03418 90.6979 7.03418C91.7329 7.03418 92.6195 7.20921 93.3576 7.55928C94.1034 7.90173 94.6742 8.36975 95.0699 8.96334C95.4656 9.54931 95.6635 10.2114 95.6635 10.9496H92.9124C92.9124 10.6223 92.8287 10.3179 92.6613 10.0364C92.5015 9.74717 92.258 9.51507 91.9307 9.34003C91.6035 9.15739 91.1926 9.06607 90.6979 9.06607C90.2261 9.06607 89.8342 9.14217 89.5221 9.29437C89.2177 9.43897 88.9894 9.62922 88.8372 9.86513C88.6926 10.101 88.6204 10.3598 88.6204 10.6414C88.6204 10.8468 88.6584 11.0333 88.7345 11.2007C88.8182 11.3605 88.9552 11.5089 89.1454 11.6459C89.3357 11.7753 89.5944 11.897 89.9217 12.0112C90.2565 12.1253 90.6751 12.2357 91.1773 12.3422C92.121 12.5401 92.9315 12.795 93.6088 13.107C94.2937 13.4114 94.8188 13.8072 95.184 14.2942C95.5493 14.7736 95.732 15.3824 95.732 16.1206C95.732 16.6685 95.614 17.1708 95.3781 17.6274C95.1498 18.0764 94.815 18.4683 94.3736 18.8032C93.9322 19.1304 93.4033 19.3853 92.7869 19.568C92.1781 19.7506 91.4932 19.8419 90.7322 19.8419C89.6135 19.8419 88.666 19.6441 87.8898 19.2484C87.1136 18.845 86.5238 18.3313 86.1204 17.7073C85.7247 17.0757 85.5269 16.4212 85.5269 15.7439H88.1866C88.217 16.2538 88.3578 16.6609 88.6089 16.9653C88.8677 17.2621 89.1873 17.479 89.5678 17.616C89.9559 17.7454 90.3555 17.8101 90.7664 17.8101C91.2611 17.8101 91.6758 17.7454 92.0106 17.616C92.3455 17.479 92.6004 17.2964 92.7755 17.0681C92.9505 16.8322 93.038 16.5658 93.038 16.269Z" fill="#FFBA88"></path><path d="M80.5269 16.7035V7.26318H83.2894V19.6143H80.6867L80.5269 16.7035ZM80.915 14.1351L81.8396 14.1123C81.8396 14.9418 81.7483 15.7066 81.5657 16.4067C81.383 17.0992 81.1015 17.7042 80.721 18.2217C80.3404 18.7316 79.8534 19.1311 79.2598 19.4203C78.6662 19.7019 77.9547 19.8426 77.1252 19.8426C76.524 19.8426 75.9723 19.7551 75.47 19.5801C74.9677 19.4051 74.534 19.1349 74.1687 18.7696C73.811 18.4043 73.5332 17.9287 73.3354 17.3427C73.1375 16.7568 73.0386 16.0566 73.0386 15.2424V7.26318H75.7896V15.2652C75.7896 15.7142 75.8429 16.0909 75.9494 16.3953C76.056 16.6921 76.2006 16.9318 76.3832 17.1144C76.5658 17.2971 76.7789 17.4264 77.0225 17.5025C77.266 17.5786 77.5247 17.6167 77.7987 17.6167C78.5825 17.6167 79.1989 17.4645 79.6479 17.1601C80.1045 16.8481 80.428 16.4295 80.6182 15.9044C80.8161 15.3793 80.915 14.7896 80.915 14.1351Z" fill="#FFBA88"></path><path d="M63.4386 7.26318L65.7901 11.3612L68.1873 7.26318H71.2123L67.4681 13.3246L71.3607 19.6143H68.3357L65.8244 15.3451L63.313 19.6143H60.2766L64.1578 13.3246L60.425 7.26318H63.4386Z" fill="#FFBA88"></path><path d="M54.2493 19.8419C53.3361 19.8419 52.5104 19.6935 51.7723 19.3968C51.0417 19.0924 50.4177 18.67 49.9002 18.1297C49.3903 17.5894 48.9984 16.9539 48.7244 16.2234C48.4505 15.4928 48.3135 14.7051 48.3135 13.8604V13.4038C48.3135 12.4373 48.4543 11.5622 48.7358 10.7783C49.0174 9.9945 49.4093 9.32481 49.9116 8.76928C50.4139 8.20613 51.0074 7.77616 51.6924 7.47937C52.3773 7.18258 53.1192 7.03418 53.9183 7.03418C54.8011 7.03418 55.5735 7.18258 56.2356 7.47937C56.8976 7.77616 57.4456 8.19472 57.8793 8.73503C58.3207 9.26774 58.648 9.90318 58.861 10.6414C59.0817 11.3795 59.1921 12.1938 59.1921 13.0842V14.26H49.649V12.2851H56.4753V12.0682C56.4601 11.5736 56.3611 11.1094 56.1785 10.6756C56.0035 10.2418 55.7333 9.89177 55.368 9.62541C55.0027 9.35906 54.5157 9.22588 53.9069 9.22588C53.4503 9.22588 53.0431 9.32481 52.6855 9.52268C52.3354 9.71293 52.0424 9.9907 51.8065 10.356C51.5706 10.7213 51.3879 11.1626 51.2586 11.6801C51.1368 12.19 51.0759 12.7646 51.0759 13.4038V13.8604C51.0759 14.4007 51.1482 14.903 51.2928 15.3672C51.445 15.8238 51.6657 16.2234 51.9549 16.5658C52.2441 16.9083 52.5941 17.1784 53.0051 17.3763C53.416 17.5665 53.8841 17.6617 54.4092 17.6617C55.0712 17.6617 55.661 17.5285 56.1785 17.2621C56.696 16.9958 57.145 16.6191 57.5255 16.132L58.9752 17.5361C58.7088 17.9242 58.3626 18.2971 57.9364 18.6548C57.5103 19.0048 56.989 19.2902 56.3726 19.5109C55.7637 19.7316 55.056 19.8419 54.2493 19.8419Z" fill="#FFBA88"></path><path d="M45.6652 2.99365V19.6141H42.8L35.3459 7.7081V19.6141H32.4807V2.99365H35.3459L42.8228 14.9225V2.99365H45.6652Z" fill="#FFBA88"></path></svg>